<svg width="20" height="29" viewBox="0 0 20 29" fill="none" xmlns="http://www.w3.org/2000/svg">
<path d="M19.8333 10.2987C19.8333 4.82191 15.3935 0.38208 9.91667 0.38208C4.43983 0.38208 0 4.82191 0 10.2987C0 12.2637 0.580833 14.0912 1.56542 15.6325H1.55408C4.89742 20.8671 9.91667 28.7154 9.91667 28.7154L18.2793 15.6325H18.2693C19.2525 14.0912 19.8333 12.2637 19.8333 10.2987ZM9.91667 14.5487C7.56925 14.5487 5.66667 12.6462 5.66667 10.2987C5.66667 7.95133 7.56925 6.04875 9.91667 6.04875C12.2641 6.04875 14.1667 7.95133 14.1667 10.2987C14.1667 12.6462 12.2641 14.5487 9.91667 14.5487Z" fill="white" fill-opacity="0.45"/>
</svg>
