<svg width="61" height="54" viewBox="0 0 61 54" fill="none" xmlns="http://www.w3.org/2000/svg">
<path d="M29.0801 15.0771L34.7333 16.5667C34.9253 16.6116 35.0971 16.7187 35.2219 16.8713C35.3468 17.0238 35.4178 17.2134 35.4239 17.4105C35.4239 17.8896 34.9979 18.2855 34.4739 18.2855H30.7656C30.3659 18.2843 29.9703 18.2065 29.5999 18.0563C29.0541 17.8271 28.4249 17.8792 28.0062 18.2646L26.027 20.0876C25.9355 20.1677 25.8565 20.2611 25.7926 20.3646C25.7109 20.4987 25.6566 20.6476 25.6327 20.8027C25.6087 20.9578 25.6158 21.1162 25.6533 21.2686C25.6909 21.421 25.7583 21.5645 25.8516 21.6907C25.9448 21.817 26.0622 21.9235 26.1968 22.0042C27.2929 22.662 28.5201 23.071 29.7916 23.2021V25.0459C29.7916 25.9626 30.6072 26.7126 31.601 26.7126H33.4104C34.4051 26.7126 35.2208 25.9626 35.2208 25.0459V23.2126C38.651 22.8376 41.2458 19.9834 40.7937 16.6501C40.4656 14.2542 38.4541 12.348 35.9437 11.6813L30.2906 10.1917C30.0986 10.1468 29.9268 10.0398 29.8019 9.8872C29.677 9.73462 29.606 9.54506 29.5999 9.34798C29.5999 8.86881 30.026 8.47298 30.5499 8.47298H34.2583C34.6593 8.4736 35.0564 8.55141 35.4281 8.70215C35.9729 8.93131 36.6031 8.87923 37.0218 8.49381L39.001 6.6709C39.0895 6.59248 39.1657 6.50118 39.227 6.40006C39.3094 6.26608 39.3645 6.11709 39.389 5.96171C39.4135 5.80633 39.4069 5.64763 39.3697 5.49479C39.3325 5.34195 39.2654 5.198 39.1723 5.07125C39.0791 4.94449 38.9618 4.83745 38.827 4.75631C37.7306 4.09854 36.5031 3.6896 35.2312 3.5584V1.71256C35.2312 0.795898 34.4166 0.0458984 33.4218 0.0458984H31.6124C30.6176 0.0458984 29.8031 0.795898 29.8031 1.71256V3.5459C26.377 3.9209 23.777 6.77506 24.2291 10.1084C24.5562 12.5042 26.5739 14.4105 29.0801 15.0771ZM59.727 34.223C58.4979 33.1084 56.5812 33.1813 55.2895 34.223L45.6645 41.9209C44.483 42.8688 43.0126 43.3834 41.4979 43.3792H29.1781C28.736 43.3792 28.3121 43.2036 27.9995 42.8911C27.687 42.5785 27.5114 42.1546 27.5114 41.7126C27.5114 41.2705 27.687 40.8466 27.9995 40.534C28.3121 40.2215 28.736 40.0459 29.1781 40.0459H37.3333C38.9895 40.0459 40.5322 38.9105 40.7968 37.2751C40.8294 37.0872 40.8455 36.8969 40.8447 36.7063C40.8431 35.8233 40.4912 34.9771 39.8662 34.3533C39.2413 33.7296 38.3944 33.3792 37.5114 33.3792H20.8447C18.0339 33.38 15.3087 34.3468 13.126 36.1178L8.28223 40.0459H2.51139C2.06937 40.0459 1.64544 40.2215 1.33288 40.534C1.02032 40.8466 0.844727 41.2705 0.844727 41.7126L0.844727 51.7126C0.844727 52.1546 1.02032 52.5785 1.33288 52.8911C1.64544 53.2036 2.06937 53.3792 2.51139 53.3792H39.6749C41.1891 53.3804 42.6586 52.8661 43.8416 51.9209L59.5947 39.3167C59.9737 39.0136 60.2819 38.6315 60.4978 38.1969C60.7137 37.7624 60.8322 37.2859 60.8449 36.8008C60.8576 36.3158 60.7642 35.8338 60.5713 35.3885C60.3784 34.9432 60.0906 34.5455 59.7281 34.223H59.727Z" fill="#269690"/>
</svg>
